# xmcd CD database file
#
# Track frame offsets:
#	150
#	21688
#	32581
#	46714
#	59732
#	76939
#	83588
#	87270
#	100677
#	106247
#	118595
#	125999
#	133240
#	140226
#	148463
#	156190
#	164264
#	171573
#	184917
#	197686
#	210362
#	224160
#	226816
#	240889
#	252834
#	257952
#	273568
#	276686
#	279410
#	286262
#	303455
#	317534
#	321779
#	328822
#
# Disc length: 4606 seconds
#
# Revision: 0
# Processed by: cddbd v1.5.1PL0 Copyright (c) Steve Scherf et al.
# Submitted via: CDex 1.51
#
DISCID=1211fc22
DTITLE=Sonoton Authentic Series - SAS 070 - Authentic Albania
DYEAR=1998
DGENRE=Contentum
TTITLE0=Sunday peace
TTITLE1=Bakllama solo
TTITLE2=Scenic view
TTITLE3=Albanian impression
TTITLE4=Permet wedding
TTITLE5=Sharki solo
TTITLE6=Vlora pastoral
TTITLE7=Southern wedding
TTITLE8=Life in the village
TTITLE9=Mourning song
TTITLE10=Full of life
TTITLE11=Tropoje
TTITLE12=Sounds of the south
TTITLE13=Puka
TTITLE14=From the north-east
TTITLE15=Gathering folks
TTITLE16=Two flutes
TTITLE17=Lively fyell
TTITLE18=My heart beats for home
TTITLE19=Market scenes
TTITLE20=Fun and joy
TTITLE21=Pipez tune
TTITLE22=Life in Kukes
TTITLE23=Polifonike
TTITLE24=Lively plucked
TTITLE25=Flute and cifteli
TTITLE26=Pukiane melody
TTITLE27=Pipez solo
TTITLE28=Bibil solo
TTITLE29=Albania hartland
TTITLE30=I love the south
TTITLE31=Gadje solo
TTITLE32=Rural mood
TTITLE33=Kaba
EXTD=YEAR: 1998
EXTT0=
EXTT1=
EXTT2=
EXTT3=
EXTT4=
EXTT5=
EXTT6=
EXTT7=
EXTT8=
EXTT9=
EXTT10=
EXTT11=
EXTT12=
EXTT13=
EXTT14=
EXTT15=
EXTT16=
EXTT17=
EXTT18=
EXTT19=
EXTT20=
EXTT21=
EXTT22=
EXTT23=
EXTT24=
EXTT25=
EXTT26=
EXTT27=
EXTT28=
EXTT29=
EXTT30=
EXTT31=
EXTT32=
EXTT33=
PLAYORDER=
